<?xml version="1.0" encoding="utf-8"?>
<!-- Generator: Adobe Illustrator 21.0.0, SVG Export Plug-In . SVG Version: 6.00 Build 0)  -->
<svg version="1.1" id="Calque_1" xmlns="http://www.w3.org/2000/svg" xmlns:xlink="http://www.w3.org/1999/xlink" x="0px" y="0px"
	 viewBox="0 0 24 24" style="enable-background:new 0 0 24 24;" xml:space="preserve">
<style type="text/css">
	.st0{fill:#FFFFFF;}
</style>
<title>Instagram icon</title>
<g>
	<circle class="st0" cx="12" cy="12" r="4"/>
	<path class="st0" d="M23.9,7.1c-0.1-1.3-0.3-2.1-0.6-2.9C23.1,3.4,22.7,2.7,22,2s-1.3-1.1-2.1-1.4C19.1,0.3,18.3,0.1,17,0
		c-1.3,0-1.7,0-5,0S8.3,0,7.1,0.1c-1.3,0-2.2,0.2-3,0.5C3.4,0.9,2.7,1.3,2,2S0.9,3.3,0.6,4.1s-0.5,1.7-0.5,3C0,8.3,0,8.7,0,12
		s0,3.7,0.1,4.9c0.1,1.3,0.3,2.1,0.6,2.9C0.9,20.6,1.3,21.3,2,22s1.3,1.1,2.1,1.4S5.7,23.9,7,24c1.3,0,1.7,0,5,0s3.7,0,4.9-0.1
		c1.3-0.1,2.1-0.3,2.9-0.6c0.8-0.3,1.5-0.7,2.1-1.4c0.7-0.7,1.1-1.3,1.4-2.1c0.3-0.8,0.5-1.6,0.6-2.9C24,15.7,24,15.3,24,12
		S24,8.3,23.9,7.1z M12,18.2c-3.4,0-6.2-2.8-6.2-6.2S8.6,5.8,12,5.8s6.2,2.8,6.2,6.2S15.4,18.2,12,18.2z M18.4,7
		C17.6,7,17,6.4,17,5.6s0.6-1.4,1.4-1.4s1.4,0.6,1.4,1.4S19.2,7,18.4,7z"/>
</g>
</svg>
